<?xml version="1.0" standalone="no"?>
<!DOCTYPE svg PUBLIC "-//W3C//DTD SVG 20010904//EN"
 "http://www.w3.org/TR/2001/REC-SVG-20010904/DTD/svg10.dtd">
<svg version="1.0" xmlns="http://www.w3.org/2000/svg"
 width="1000.000000pt" height="1000.000000pt" viewBox="0 0 1000.000000 1000.000000"
 preserveAspectRatio="xMidYMid meet">

<g transform="translate(0.000000,1000.000000) scale(0.100000,-0.100000)"
fill="#000000" stroke="none">
<path d="M0 5000 l0 -5000 5000 0 5000 0 0 5000 0 5000 -5000 0 -5000 0 0
-5000z m5028 3093 c34 -76 35 -165 3 -240 -13 -29 -30 -53 -38 -53 -8 0 -11 5
-8 10 3 6 2 10 -4 10 -14 0 -51 104 -51 144 0 49 29 138 42 130 7 -4 8 -3 4 4
-7 11 9 52 20 52 3 0 17 -26 32 -57z m-102 -257 c25 -25 43 -49 40 -55 -4 -5
-1 -13 5 -17 8 -4 9 -3 5 4 -5 8 0 12 13 12 12 0 42 22 69 50 53 55 84 63 123
32 28 -23 30 -73 4 -102 -28 -31 -52 -26 -47 9 3 23 -1 32 -18 41 -32 17 -65
-1 -81 -44 -11 -31 -17 -36 -45 -36 -25 0 -34 5 -39 23 -10 31 -45 67 -66 67
-24 0 -42 -26 -37 -55 6 -32 -20 -34 -47 -5 -26 29 -24 79 4 102 37 29 66 22
117 -26z m131 -152 c4 -11 -2 -23 -17 -34 -28 -21 -19 -46 11 -30 10 6 43 15
73 21 112 20 218 -30 287 -136 l40 -63 42 10 c142 33 297 -58 346 -204 52
-153 4 -377 -114 -530 l-36 -48 -688 0 -688 0 -30 38 c-43 53 -109 187 -127
259 -23 87 -21 205 5 281 49 146 204 237 346 204 l42 -10 40 63 c68 105 170
154 282 136 30 -5 62 -12 72 -16 10 -4 17 -3 17 4 0 7 -7 14 -15 17 -8 4 -15
17 -15 30 0 23 3 24 60 24 47 0 62 -4 67 -16z m623 -1122 c0 -40 -5 -73 -12
-80 -17 -17 -1319 -17 -1336 0 -7 7 -12 40 -12 80 l0 68 680 0 680 0 0 -68z
m-50 -139 c0 -10 -133 -13 -630 -13 -497 0 -630 3 -630 13 0 9 133 12 630 12
497 0 630 -3 630 -12z m1980 -57 c0 -3 -46 -85 -103 -183 -57 -98 -224 -387
-372 -643 -148 -256 -325 -562 -393 -680 -69 -118 -166 -287 -217 -375 -50
-88 -168 -290 -260 -450 -93 -159 -207 -357 -255 -440 -47 -82 -140 -242 -205
-355 -65 -113 -182 -315 -260 -450 -249 -431 -268 -464 -302 -517 -18 -29 -33
-54 -33 -57 0 -3 -28 -54 -63 -113 -35 -60 -80 -138 -101 -175 -20 -38 -41
-68 -46 -68 -5 0 -26 30 -46 68 -21 37 -59 104 -86 150 -26 45 -48 85 -48 87
0 3 -15 28 -34 57 -36 57 -101 169 -313 538 -75 129 -172 298 -217 375 -46 77
-94 160 -108 185 -28 50 -158 275 -413 715 -92 160 -210 362 -260 450 -51 88
-148 257 -217 375 -68 118 -193 334 -277 480 -143 246 -204 353 -485 838 -58
101 -106 185 -106 188 0 2 1175 4 2610 4 1436 0 2610 -2 2610 -4z"/>
<path d="M4739 7517 c-163 -110 -156 -456 15 -695 l38 -52 75 0 76 0 -7 43
c-42 278 -45 440 -10 599 22 102 23 99 -16 114 -58 21 -132 17 -171 -9z"/>
<path d="M5087 7523 c-27 -11 -36 -20 -33 -32 15 -49 37 -210 43 -306 6 -115
-7 -271 -31 -363 l-14 -52 78 0 78 0 36 49 c173 241 181 587 17 698 -41 28
-116 30 -174 6z"/>
<path d="M4984 7429 c-10 -17 13 -36 27 -22 12 12 4 33 -11 33 -5 0 -12 -5
-16 -11z"/>
<path d="M4976 7351 c-10 -16 5 -41 24 -41 19 0 34 25 24 41 -3 5 -14 9 -24 9
-10 0 -21 -4 -24 -9z"/>
<path d="M4365 7336 c-70 -32 -114 -108 -122 -211 -7 -80 25 -198 78 -287 l40
-68 144 0 c80 0 145 3 145 6 0 3 -14 31 -31 62 -17 32 -45 97 -62 147 -27 79
-31 107 -35 228 l-4 137 -62 0 c-33 -1 -74 -7 -91 -14z"/>
<path d="M5478 7213 c-5 -155 -31 -254 -94 -370 -19 -33 -34 -64 -34 -67 0 -3
64 -6 143 -6 l142 0 34 52 c88 134 113 309 59 418 -39 79 -90 110 -179 110
l-67 0 -4 -137z"/>
<path d="M4971 7232 l-23 -49 21 -41 c12 -23 26 -42 31 -42 5 0 19 19 31 42
l21 41 -23 49 c-12 26 -25 48 -29 48 -4 0 -17 -22 -29 -48z m43 -28 c7 -19 -1
-54 -14 -54 -12 0 -21 31 -15 51 8 23 21 24 29 3z"/>
<path d="M4974 7045 c-4 -9 -2 -21 4 -27 16 -16 47 -5 47 17 0 26 -42 34 -51
10z"/>
<path d="M4987 6964 c-13 -13 -7 -24 14 -24 11 0 19 5 17 12 -5 14 -22 21 -31
12z"/>
<path d="M4948 6582 c-26 -15 -48 -29 -48 -32 0 -3 23 -17 50 -32 l50 -28 50
28 c27 15 50 29 50 32 0 5 -97 61 -103 59 -1 0 -23 -12 -49 -27z m87 -14 c33
-15 32 -23 -5 -38 -24 -10 -36 -10 -60 0 -36 15 -38 23 -7 38 29 14 41 14 72
0z"/>
<path d="M4827 6574 c-4 -4 -7 -18 -7 -31 0 -21 4 -24 28 -21 21 2 27 8 27 28
0 18 -6 26 -20 28 -12 2 -24 0 -28 -4z"/>
<path d="M5124 6566 c-10 -26 4 -46 31 -46 23 0 26 4 23 28 -3 31 -44 45 -54
18z"/>
<path d="M4640 6549 c0 -12 5 -19 12 -17 18 6 20 25 3 31 -10 5 -15 0 -15 -14z"/>
<path d="M4725 6560 c-4 -7 -3 -16 3 -22 14 -14 45 -2 40 15 -6 16 -34 21 -43
7z"/>
<path d="M5235 6560 c-4 -7 -3 -16 3 -22 14 -14 45 -2 40 15 -6 16 -34 21 -43
7z"/>
<path d="M5340 6560 c-12 -7 -12 -12 -3 -21 15 -15 26 -7 21 15 -2 11 -7 13
-18 6z"/>
<path d="M4560 6550 c0 -5 5 -10 10 -10 6 0 10 5 10 10 0 6 -4 10 -10 10 -5 0
-10 -4 -10 -10z"/>
<path d="M5420 6550 c0 -5 5 -10 10 -10 6 0 10 5 10 10 0 6 -4 10 -10 10 -5 0
-10 -4 -10 -10z"/>
<path d="M5000 6105 l0 -135 -140 0 -140 0 0 -601 0 -601 -52 50 c-29 27 -269
249 -533 493 -263 244 -531 492 -594 552 l-115 107 -174 0 -173 0 12 -22 c12
-24 451 -784 544 -943 29 -49 157 -272 285 -495 129 -223 283 -490 343 -595
61 -104 144 -248 185 -320 41 -71 82 -143 92 -160 9 -16 40 -70 69 -120 127
-223 149 -262 205 -358 32 -56 87 -151 123 -210 l64 -108 -2 -260 c-1 -143 1
-262 3 -265 3 -2 34 46 70 108 35 62 99 174 143 248 43 74 89 155 103 180 13
25 39 70 57 100 18 30 93 161 167 290 74 129 179 312 233 405 54 94 173 301
265 460 154 267 266 462 415 720 32 55 100 174 153 265 52 91 136 237 187 325
51 88 184 318 295 510 111 193 222 384 246 426 24 42 44 79 44 82 0 4 -535 7
-1190 7 l-1190 0 0 -135z m1902 -167 c-11 -18 -47 -81 -81 -140 l-63 -107
-736 -1 c-404 0 -737 -2 -739 -3 -1 -2 -4 -125 -5 -273 l-3 -269 581 -5 582
-5 -234 -405 c-128 -223 -268 -466 -312 -540 -43 -74 -132 -227 -197 -340 -65
-113 -133 -230 -150 -260 -18 -30 -75 -129 -128 -220 -52 -91 -143 -248 -203
-350 -59 -102 -121 -210 -137 -240 -17 -30 -41 -71 -54 -90 l-23 -35 0 274 0
273 -108 187 c-60 102 -152 260 -204 351 -53 91 -138 237 -189 325 -51 88
-116 201 -144 250 -86 151 -466 808 -488 845 l-21 35 41 -35 c39 -33 355 -325
523 -484 95 -89 201 -188 265 -246 28 -25 112 -103 188 -174 l137 -128 0 91 0
91 138 0 137 0 -3 -315 c-1 -173 1 -315 5 -315 5 1 68 105 141 233 73 128 193
338 268 467 189 327 274 476 274 483 0 3 -80 5 -177 4 -98 -1 -314 -1 -480 1
l-303 2 0 550 0 550 961 0 961 0 -20 -32z"/>
<path d="M4930 2041 c0 -6 4 -13 10 -16 6 -3 7 1 4 9 -7 18 -14 21 -14 7z"/>
<path d="M4980 1901 c0 -6 4 -13 10 -16 6 -3 7 1 4 9 -7 18 -14 21 -14 7z"/>
</g>
</svg>
