<svg id="SvgjsSvg1001" width="288" height="288" xmlns="http://www.w3.org/2000/svg" version="1.1" xmlns:xlink="http://www.w3.org/1999/xlink" xmlns:svgjs="http://svgjs.com/svgjs"><defs id="SvgjsDefs1002"></defs><g id="SvgjsG1008"><svg xmlns="http://www.w3.org/2000/svg" viewBox="0 0 187.973 226.198" width="288" height="288"><path fill="#fcc200" fill-rule="evenodd" d="M185.9734 159.6152 0 159.9024 93.5654 0ZM92.4744 145.6401 92.6898 155.3213H177.8763L93.1201 9.256V27.7563L24.9282 145.211H35.2542L83.0098 103.4779V145.6401ZM92.9049 145.8553 160.8817 146.2847 156.1493 137.4659H103.0156V116.1694H143.2426L93.5507 29.6912V45.6106L49.4512 121.117 92.9049 81.1052V85.8376H102.8001V64.7552L126.9737 106.6249H92.9049ZM71.2763 162.8912H114.6969V161.8943H71.2763ZM68.8405 169.537H117.1344V164.2201H68.8405ZM79.7975 167.5585C80.3716 167.5585 80.8356 167.0944 80.8356 166.5218 80.8356 165.9489 80.3716 165.4838 79.7975 165.4838 79.2249 165.4838 78.7609 165.9489 78.7609 166.5218 78.7609 167.0944 79.2249 167.5585 79.7975 167.5585ZM84.272 167.5585C84.8449 167.5585 85.3087 167.0944 85.3087 166.5218 85.3087 165.9489 84.8449 165.4838 84.272 165.4838 83.698 165.4838 83.2343 165.9489 83.2343 166.5218 83.2343 167.0944 83.698 167.5585 84.272 167.5585ZM93.0246 167.9465C93.8126 167.9465 94.4504 167.3099 94.4504 166.5218 94.4504 165.7338 93.8126 165.0957 93.0246 165.0957 92.2365 165.0957 91.5999 165.7338 91.5999 166.5218 91.5999 167.3099 92.2365 167.9465 93.0246 167.9465ZM101.7771 167.5585C102.3511 167.5585 102.8149 167.0944 102.8149 166.5218 102.8149 165.9489 102.3511 165.4838 101.7771 165.4838 101.2042 165.4838 100.7405 165.9489 100.7405 166.5218 100.7405 167.0944 101.2042 167.5585 101.7771 167.5585ZM106.2516 167.5585C106.8242 167.5585 107.2882 167.0944 107.2882 166.5218 107.2882 165.9489 106.8242 165.4838 106.2516 165.4838 105.6773 165.4838 105.2135 165.9489 105.2135 166.5218 105.2135 167.0944 105.6773 167.5585 106.2516 167.5585ZM76.7276 199.0874C79.4307 204.4565 84.3812 205.9795 91.3433 205.5461L90.5805 207.6885H95.3926L94.7628 205.554C101.6546 205.9594 106.5597 204.4233 109.2455 199.0874 124.365 198.9558 128.1339 184.3693 116.644 171.5278 108.758 171.5278 100.872 171.5278 92.986 171.5278 85.1 171.5278 77.2155 171.5278 69.3295 171.5278 57.8395 184.3693 61.6071 198.9558 76.7276 199.0874ZM94.9501 201.2323C98.1091 191.8701 97.6 183.3928 95.1177 175.3926 96.9582 175.3926 98.8002 175.3926 100.6407 175.3926 113.925 195.9299 103.373 205.1169 94.9501 201.2323ZM110.605 194.7818C110.641 189.3583 109.9182 179.5918 105.0208 174.801 106.1799 174.801 114.1679 174.6734 115.327 174.6734 124.9577 188.4917 116.8937 197.9167 110.605 194.7818ZM91.023 201.2323C88.2709 192.5172 88.5487 183.9149 90.8544 175.3926 89.0138 175.3926 87.1733 175.3926 85.3328 175.3926 72.0471 195.9299 82.599 205.1169 91.023 201.2323ZM75.367 194.7818C75.3324 189.3583 76.0552 179.5918 80.9524 174.801 79.7936 174.801 71.8041 174.6734 70.645 174.6734 61.0143 188.4917 69.0797 197.9167 75.367 194.7818ZM92.0942 176.5312C92.0942 177.0418 92.5089 177.4551 93.0192 177.4551 93.5308 177.4551 93.9441 177.0418 93.9441 176.5312 93.9441 176.0196 93.5308 175.6063 93.0192 175.6063 92.5089 175.6063 92.0942 176.0196 92.0942 176.5312ZM92.0942 180.5182C92.0942 181.0284 92.5089 181.4431 93.0192 181.4431 93.5308 181.4431 93.9441 181.0284 93.9441 180.5182 93.9441 180.0065 93.5308 179.5946 93.0192 179.5946 92.5089 179.5946 92.0942 180.0065 92.0942 180.5182ZM91.7487 188.3191C91.7487 189.0221 92.3176 189.5896 93.0192 189.5896 93.7222 189.5896 94.2897 189.0221 94.2897 188.3191 94.2897 187.6173 93.7222 187.05 93.0192 187.05 92.3176 187.05 91.7487 187.6173 91.7487 188.3191ZM92.0942 196.1212C92.0942 196.6329 92.5089 197.045 93.0192 197.045 93.5308 197.045 93.9441 196.6329 93.9441 196.1212 93.9441 195.611 93.5308 195.1963 93.0192 195.1963 92.5089 195.1963 92.0942 195.611 92.0942 196.1212ZM92.0942 200.1081C92.0942 200.6198 92.5089 201.0331 93.0192 201.0331 93.5308 201.0331 93.9441 200.6198 93.9441 200.1081 93.9441 199.5979 93.5308 199.1846 93.0192 199.1846 92.5089 199.1846 92.0942 199.5979 92.0942 200.1081ZM93.1561 212.1418C89.879 216.0275 90.1089 220.0555 93.1561 224.1978 95.8791 219.8548 95.8578 215.8387 93.1561 212.1418ZM88.2442 210.4977C88.3692 212.2427 89.6465 211.7418 91.6744 209.7683 91.6744 209.3641 91.6744 208.9616 91.6744 208.5576 93.6825 208.5576 92.2935 208.5576 94.3004 208.5576 94.3004 208.9616 94.3004 209.3641 94.3004 209.7683 96.3298 211.7418 97.6068 212.2427 97.7318 210.4977 97.8341 209.0891 97.6346 208.2186 99.5868 210.0977 102.2542 212.6614 98.5462 216.951 94.1394 211.8705 91.7606 209.1331 94.2154 209.1331 91.8366 211.8705 87.4298 216.951 83.7207 212.6614 86.3892 210.0977 88.34 208.2186 88.1419 209.0891 88.2442 210.4977" data-name="Layer 1" transform="matrix(1 0 0 -1 1 225.198)" class="color231f20 svgShape"></path></svg></g></svg>